HIERARCHY
ROOT Hips
{
	OFFSET 53.759499 -8.100595 94.326897
	CHANNELS 6 Xposition Yposition Zposition Xrotation Yrotation Zrotation
	JOINT spine
	{
		OFFSET 0.000000 -0.448574 7.800591
		CHANNELS 3 Xrotation Yrotation Zrotation
		JOINT spine1
		{
			OFFSET 0.000000 -0.000002 10.136398
			CHANNELS 3 Xrotation Yrotation Zrotation
			JOINT spine2
			{
				OFFSET 0.000000 -0.000002 9.712509
				CHANNELS 3 Xrotation Yrotation Zrotation
				JOINT Neck
				{
					OFFSET 0.000000 -1.188874 24.936096
					CHANNELS 3 Xrotation Yrotation Zrotation
					JOINT Head
					{
						OFFSET 0.000000 -0.000001 7.533844
						CHANNELS 3 Xrotation Yrotation Zrotation
						End Site
						{
							OFFSET 0.000000 6.014017 18.236099
						}
					}
				}
				JOINT RightShoulder
				{
					OFFSET -4.089649 0.569456 10.488800
					CHANNELS 3 Xrotation Yrotation Zrotation
					JOINT RightArm
					{
						OFFSET 0.000000 -0.000002 13.757004
						CHANNELS 3 Xrotation Yrotation Zrotation
						JOINT RightArmRoll
						{
							OFFSET 0.000000 -0.000001 6.944778
							CHANNELS 3 Xrotation Yrotation Zrotation
							JOINT RightForeArm
							{
								OFFSET 0.000000 -0.000003 20.227707
								CHANNELS 3 Xrotation Yrotation Zrotation
								JOINT RightForeArmRoll
								{
									OFFSET 0.000000 -0.000001 7.793121
									CHANNELS 3 Xrotation Yrotation Zrotation
									JOINT RightHand
									{
										OFFSET 0.000000 -0.000002 15.639099
										CHANNELS 3 Xrotation Yrotation Zrotation
										End Site
										{
											OFFSET 0.000000 0.000000 0.100006
										}
									}
								}
							}
						}
					}
				}
				JOINT LeftShoulder
				{
					OFFSET 4.089649 0.569456 10.488800
					CHANNELS 3 Xrotation Yrotation Zrotation
					JOINT LeftArm
					{
						OFFSET 0.000000 -0.000002 13.757004
						CHANNELS 3 Xrotation Yrotation Zrotation
						JOINT LeftArmRoll
						{
							OFFSET 0.000000 -0.000001 6.944778
							CHANNELS 3 Xrotation Yrotation Zrotation
							JOINT LeftForeArm
							{
								OFFSET 0.000000 -0.000003 20.227707
								CHANNELS 3 Xrotation Yrotation Zrotation
								JOINT LeftForeArmRoll
								{
									OFFSET 0.000000 -0.000001 7.793121
									CHANNELS 3 Xrotation Yrotation Zrotation
									JOINT LeftHand
									{
										OFFSET 0.000000 -0.000002 15.639099
										CHANNELS 3 Xrotation Yrotation Zrotation
										End Site
										{
											OFFSET 0.000000 0.000000 0.100006
										}
									}
								}
							}
						}
					}
				}
			}
		}
	}
	JOINT RightUpLeg
	{
		OFFSET -6.914162 1.063580 -1.267883
		CHANNELS 3 Xrotation Yrotation Zrotation
		JOINT RightUpLegRoll
		{
			OFFSET 0.000000 -0.000003 18.337799
			CHANNELS 3 Xrotation Yrotation Zrotation
			JOINT RightLeg
			{
				OFFSET 0.000000 0.000004 -22.708504
				CHANNELS 3 Xrotation Yrotation Zrotation
				JOINT RightLegRoll
				{
					OFFSET 0.000000 -0.000004 22.782799
					CHANNELS 3 Xrotation Yrotation Zrotation
					JOINT RightFoot
					{
						OFFSET 0.000000 -0.000003 18.962898
						CHANNELS 3 Xrotation Yrotation Zrotation
						JOINT RightToeBase
						{
							OFFSET 0.000000 -0.000002 15.852005
							CHANNELS 3 Xrotation Yrotation Zrotation
							End Site
							{
								OFFSET 0.006718 0.884891 7.677017
							}
						}
					}
				}
			}
		}
	}
	JOINT LeftUpLeg
	{
		OFFSET 6.914162 1.063580 -1.267883
		CHANNELS 3 Xrotation Yrotation Zrotation
		JOINT LeftUpLegRoll
		{
			OFFSET 0.000000 -0.000003 18.337898
			CHANNELS 3 Xrotation Yrotation Zrotation
			JOINT LeftLeg
			{
				OFFSET 0.000000 -0.000004 22.708405
				CHANNELS 3 Xrotation Yrotation Zrotation
				JOINT LeftLegRoll
				{
					OFFSET 0.000000 -0.000004 22.993408
					CHANNELS 3 Xrotation Yrotation Zrotation
					JOINT LeftFoot
					{
						OFFSET 0.000000 -0.000003 18.752197
						CHANNELS 3 Xrotation Yrotation Zrotation
						JOINT LeftToeBase
						{
							OFFSET 0.000000 -0.000002 15.852005
							CHANNELS 3 Xrotation Yrotation Zrotation
							End Site
							{
								OFFSET -0.030113 0.884892 7.677017
							}
						}
					}
				}
			}
		}
	}
}
MOTION
Frames: 11
Frame Time: 0.041667
54.512604 -7.561588 110.780998 2.162516 -1.598082 2.079367 0.615966 0.045775 0.110593 5.234668 0.093791 0.220169 6.879740 0.096422 0.219029 -9.917113 20.884396 -3.147691 -5.146177 -19.587395 -7.176837 -16.635426 -56.129439 -19.618045 -21.598238 -107.042977 -5.954404 -0.000000 0.000006 -0.000001 46.908329 -6.150835 0.419713 -0.000005 0.000018 -3.000011 -5.000252 -7.998782 0.000175 -15.742116 65.324544 18.728237 -394.185107 105.539386 374.736007 -0.000002 -0.000026 0.000003 29.421897 -0.585684 0.826411 -0.000004 -0.000004 3.000011 -5.000311 7.999580 -0.000094 -45.224837 -178.409227 4.830635 -179.999991 0.000006 -2.330004 75.737201 7.410427 5.616520 0.000001 -0.000004 1.983450 65.535132 7.048383 1.979934 25.456962 -7.355616 -0.000000 -42.965175 -183.475929 -13.602309 -0.000004 -0.000003 -2.669439 -107.281187 -8.150203 -6.682550 -0.000004 0.000007 -2.560590 63.587121 -7.325921 -1.478663 25.456953 7.355613 0.000000 
54.440506 -7.568197 110.739990 2.183641 -1.528561 2.103047 0.607152 0.049154 0.105950 5.217047 0.100428 0.210812 6.862119 0.102947 0.209593 -9.862966 20.665810 -3.166963 -5.162564 -19.445176 -7.140851 -16.679303 -56.424107 -19.674408 -20.694114 -106.841576 -5.316427 0.000000 0.000007 -0.000001 46.925131 -6.248376 0.459363 -0.000002 0.000016 -3.000009 -5.000250 -7.998782 0.000177 -15.752243 65.267560 18.738349 -393.157109 105.547077 373.762787 -0.000001 -0.000026 -0.000001 29.350508 -0.532941 0.821100 -0.000005 -0.000004 3.000012 -5.000309 7.999580 -0.000091 -45.033466 -178.491571 4.744893 -179.999991 0.000005 -2.302001 76.601555 7.299700 5.370563 -0.000001 -0.000004 1.954810 65.580246 7.043133 1.988987 25.456962 -7.355616 0.000000 -42.834193 -183.509056 -13.329211 -0.000004 -0.000004 -2.638198 -106.538991 -8.013322 -6.391525 -0.000003 0.000008 -2.525540 63.677437 -7.313268 -1.499698 25.456957 7.355615 -0.000001 
54.429504 -7.595951 110.763000 2.203016 -1.466427 2.138545 0.597020 0.053231 0.101904 5.196780 0.108471 0.202632 6.841854 0.110892 0.201318 -9.801625 20.441750 -3.193509 -5.163958 -19.294115 -7.107602 -16.731042 -56.717450 -19.740415 -19.746234 -106.631329 -4.609135 -0.000001 0.000004 -0.000002 46.965081 -6.338822 0.495774 -0.000004 0.000017 -3.000010 -5.000255 -7.998783 0.000177 -15.732671 65.216026 18.714621 -392.130586 105.555123 372.804593 -0.000001 -0.000025 0.000001 29.239691 -0.470450 0.814625 -0.000008 -0.000003 3.000013 -5.000312 7.999582 -0.000094 -44.815238 -178.549027 4.679004 -179.999991 0.000005 -2.273997 77.496064 7.182164 5.113743 -0.000006 -0.000003 1.925510 65.630584 7.037475 1.998819 25.456962 -7.355617 0.000001 -42.684902 -183.530776 -13.055175 -0.000005 -0.000004 -2.606639 -105.746703 -7.867423 -6.087655 -0.000004 0.000008 -2.489680 63.770949 -7.300516 -1.520814 25.456957 7.355615 0.000001 
54.362206 -7.608770 110.679001 2.223883 -1.407291 2.187205 0.584603 0.057816 0.098095 5.171941 0.117532 0.194919 6.817013 0.119860 0.193496 -9.731316 20.203578 -3.227668 -5.153096 -19.128346 -7.076063 -16.791315 -57.023023 -19.816843 -18.743311 -106.398365 -3.828056 -0.000001 0.000006 0.000000 47.038878 -6.423503 0.530020 -0.000006 0.000017 -3.000011 -5.000249 -7.998783 0.000177 -15.682440 65.168399 18.655876 -391.078464 105.557063 371.832657 -0.000001 -0.000024 0.000002 29.109180 -0.396935 0.807655 -0.000008 -0.000005 3.000012 -5.000312 7.999582 -0.000094 -44.569436 -178.587044 4.631471 -179.999991 0.000005 -2.244996 78.436615 7.048573 4.842185 -0.000004 -0.000004 1.894220 65.688866 7.031060 2.009779 25.456962 -7.355617 0.000001 -42.517951 -183.545406 -12.768146 -0.000006 -0.000004 -2.573399 -104.890901 -7.700843 -5.762870 -0.000002 0.000008 -2.451651 63.871373 -7.287122 -1.543043 25.456957 7.355614 -0.000000 
54.349205 -7.664691 110.739983 2.245409 -1.351143 2.247163 0.570275 0.062905 0.094474 5.143273 0.127603 0.187572 6.788350 0.129842 0.186030 -9.653150 19.953974 -3.268084 -5.131411 -18.950819 -7.046087 -16.859347 -57.338113 -19.902628 -17.684383 -106.147936 -2.973696 -0.000000 0.000006 0.000000 47.140333 -6.503210 0.562573 -0.000004 0.000017 -3.000009 -5.000249 -7.998782 0.000176 -15.606335 65.124133 18.567577 -390.007954 105.552282 370.853126 -0.000002 -0.000025 0.000003 28.960186 -0.313636 0.800311 -0.000007 -0.000005 3.000012 -5.000313 7.999579 -0.000094 -44.297106 -178.606947 4.598999 -179.999991 0.000005 -2.213004 79.421125 6.899770 4.558357 0.000000 -0.000003 1.861161 65.754081 7.024056 2.021780 25.456960 -7.355617 0.000002 -42.333010 -183.554367 -12.469350 -0.000005 -0.000004 -2.538640 -103.976100 -7.514134 -5.421340 -0.000001 0.000007 -2.411661 63.978109 -7.273121 -1.566437 25.456955 7.355614 -0.000001 
54.307907 -7.692502 110.737999 2.266733 -1.297995 2.316593 0.554411 0.068496 0.090991 5.111536 0.138679 0.180498 6.756612 0.140833 0.178822 -9.568234 19.695629 -3.313449 -5.100311 -18.764360 -7.017489 -16.934390 -57.659972 -19.996677 -16.569368 -105.885281 -2.047263 0.000000 0.000006 -0.000003 47.263570 -6.578698 0.593890 -0.000005 0.000016 -3.000011 -5.000249 -7.998782 0.000177 -15.509131 65.082619 18.455175 -388.915698 105.545294 369.860945 -0.000001 -0.000026 0.000001 28.793847 -0.221771 0.792715 -0.000006 -0.000003 3.000011 -5.000314 7.999579 -0.000093 -43.999017 -178.612124 4.580325 -179.999991 0.000005 -2.180997 80.447785 6.736435 4.264893 -0.000006 -0.000004 1.826530 65.824992 7.016515 2.034807 25.456962 -7.355618 0.000001 -42.129717 -183.558370 -12.160863 -0.000007 -0.000004 -2.502568 -103.006814 -7.308343 -5.065229 -0.000005 0.000007 -2.369931 64.090636 -7.258614 -1.590854 25.456950 7.355614 -0.000001 
54.298607 -7.754619 110.764999 2.287026 -1.247846 2.393662 0.537378 0.074585 0.087596 5.077457 0.150754 0.173597 6.722535 0.152824 0.171779 -9.477634 19.430929 -3.362491 -5.061183 -18.571918 -6.990100 -17.015521 -57.985902 -20.097786 -15.397963 -105.616588 -1.050014 0.000001 0.000005 -0.000001 47.402599 -6.650760 0.624369 -0.000002 0.000015 -3.000010 -5.000256 -7.998784 0.000176 -15.395395 65.043113 18.323924 -387.809590 105.535384 368.862836 -0.000001 -0.000024 0.000001 28.611680 -0.122590 0.784981 -0.000010 -0.000004 3.000011 -5.000312 7.999580 -0.000091 -43.676242 -178.603149 4.571467 -179.999991 0.000005 -2.146996 81.514701 6.559531 3.964241 -0.000004 -0.000004 1.790541 65.900698 7.008516 2.048541 25.456964 -7.355617 0.000001 -41.907838 -183.558083 -11.844387 -0.000003 -0.000004 -2.465350 -101.987558 -7.084162 -4.700728 -0.000005 0.000008 -2.326660 64.208518 -7.243749 -1.615970 25.456957 7.355615 0.000001 
54.269005 -7.786709 110.832993 2.305438 -1.200739 2.476537 0.519552 0.081169 0.084241 5.041802 0.163822 0.166772 6.686880 0.165808 0.164797 -9.382428 19.162671 -3.413929 -5.015430 -18.376141 -6.963682 -17.101957 -58.313382 -20.204874 -14.173347 -105.346065 0.013065 -0.000000 0.000006 -0.000002 47.551330 -6.720206 0.654385 -0.000002 0.000017 -3.000009 -5.000255 -7.998783 0.000177 -15.269909 65.005178 18.179278 -386.690750 105.525221 367.858552 -0.000001 -0.000025 0.000002 28.414813 -0.017325 0.777225 -0.000009 -0.000005 3.000010 -5.000310 7.999580 -0.000094 -43.329685 -178.584202 4.571921 -179.999991 0.000005 -2.111999 82.620010 6.370034 3.659138 -0.000005 -0.000004 1.753380 65.979873 7.000185 2.063095 25.456962 -7.355616 0.000001 -41.667026 -183.554941 -11.521264 -0.000003 -0.000004 -2.427181 -100.922834 -6.843119 -4.329037 -0.000001 0.000008 -2.282051 64.331298 -7.228519 -1.641913 25.456952 7.355616 -0.000001 
54.262604 -7.855157 110.866989 2.321144 -1.156691 2.563391 0.501299 0.088244 0.080874 5.005284 0.177873 0.159925 6.650364 0.179777 0.157782 -9.283640 18.893464 -3.466559 -4.964441 -18.180172 -6.938027 -17.192570 -58.639496 -20.316509 -12.898174 -105.079783 1.137848 0.000001 0.000007 -0.000001 47.703779 -6.787836 0.684298 -0.000004 0.000015 -3.000010 -5.000257 -7.998785 0.000178 -15.137320 64.968227 18.026553 -385.562731 105.516574 366.850171 -0.000001 -0.000025 0.000002 28.204450 0.092793 0.769528 -0.000007 -0.000003 3.000009 -5.000308 7.999581 -0.000094 -42.960216 -178.556581 4.578476 -179.999991 0.000005 -2.076004 83.762086 6.169038 3.351576 -0.000003 -0.000004 1.715260 66.061590 6.991616 2.078248 25.456962 -7.355616 0.000001 -41.407250 -183.549654 -11.193466 -0.000002 -0.000003 -2.388230 -99.816931 -6.586400 -3.953249 -0.000003 0.000007 -2.236310 64.458414 -7.213084 -1.668158 25.456955 7.355614 -0.000000 
54.229408 -7.885827 110.785995 2.333293 -1.115735 2.652378 0.482998 0.095808 0.077447 4.968677 0.192904 0.152956 6.613759 0.194724 0.150634 -9.182296 18.625700 -3.519230 -4.909576 -17.986752 -6.912871 -17.286401 -58.961731 -20.431454 -11.578781 -104.821732 2.316080 0.000001 0.000005 0.000000 47.854037 -6.854362 0.714356 -0.000006 0.000017 -3.000011 -5.000252 -7.998782 0.000177 -15.002171 64.931542 17.870958 -384.430996 105.510208 365.842007 -0.000001 -0.000025 -0.000000 27.982003 0.206523 0.761961 -0.000006 -0.000004 3.000011 -5.000312 7.999578 -0.000090 -42.568765 -178.523127 4.589301 -179.999991 0.000005 -2.039995 84.939078 5.957934 3.044039 -0.000000 -0.000004 1.676390 66.144727 6.982851 2.093786 25.456960 -7.355618 0.000001 -41.128196 -183.542168 -10.863470 -0.000004 -0.000004 -2.348700 -98.674322 -6.315856 -3.576496 -0.000004 0.000008 -2.189650 64.589363 -7.197513 -1.694760 25.456957 7.355614 -0.000001 
54.232204 -7.939710 110.833000 2.341044 -1.077921 2.741705 0.465018 0.103856 0.073909 4.932703 0.208906 0.145768 6.577784 0.210638 0.143254 -9.079388 18.362221 -3.570779 -4.852198 -17.798843 -6.887916 -17.382254 -59.277368 -20.548242 -10.221212 -104.578734 3.539861 0.000000 0.000006 -0.000001 47.996030 -6.920740 0.745033 -0.000006 0.000018 -3.000008 -5.000253 -7.998784 0.000178 -14.869202 64.894741 17.717886 -383.298468 105.508630 364.835429 -0.000002 -0.000026 0.000001 27.748489 0.322628 0.754574 -0.000003 -0.000006 3.000010 -5.000311 7.999581 -0.000091 -42.156310 -178.485206 4.601308 -179.999991 0.000005 -2.004000 86.149360 5.738079 2.738653 -0.000004 -0.000003 1.636971 66.228171 6.973996 2.109701 25.456964 -7.355616 0.000000 -40.829802 -183.534655 -10.531884 -0.000003 -0.000004 -2.308769 -97.498922 -6.033200 -3.200738 -0.000007 0.000007 -2.142279 64.723747 -7.181836 -1.721655 25.456957 7.355615 0.000002 
